<?xml version="1.0" encoding="UTF-8" standalone="no"?>
<!DOCTYPE svg PUBLIC "-//W3C//DTD SVG 1.1//EN"
 "http://www.w3.org/Graphics/SVG/1.1/DTD/svg11.dtd">
<!-- Generated by graphviz version 2.43.0 (0)
 -->
<!-- Title: %3 Pages: 1 -->
<svg width="1378pt" height="404pt"
 viewBox="0.00 0.00 1377.57 404.00" xmlns="http://www.w3.org/2000/svg" xmlns:xlink="http://www.w3.org/1999/xlink">
<g id="graph0" class="graph" transform="scale(1 1) rotate(0) translate(4 400)">
<title>%3</title>
<polygon fill="white" stroke="transparent" points="-4,4 -4,-400 1373.57,-400 1373.57,4 -4,4"/>
<!-- [root] aws_instance.web (expand) -->
<g id="node1" class="node">
<title>[root] aws_instance.web (expand)</title>
<polygon fill="none" stroke="black" points="836,-252 721,-252 721,-216 836,-216 836,-252"/>
<text text-anchor="middle" x="778.5" y="-230.3" font-family="Times,serif" font-size="14.00">aws_instance.web</text>
</g>
<!-- [root] aws_security_group.web&#45;sg (expand) -->
<g id="node2" class="node">
<title>[root] aws_security_group.web&#45;sg (expand)</title>
<polygon fill="none" stroke="black" points="862.5,-180 694.5,-180 694.5,-144 862.5,-144 862.5,-180"/>
<text text-anchor="middle" x="778.5" y="-158.3" font-family="Times,serif" font-size="14.00">aws_security_group.web&#45;sg</text>
</g>
<!-- [root] aws_instance.web (expand)&#45;&gt;[root] aws_security_group.web&#45;sg (expand) -->
<g id="edge1" class="edge">
<title>[root] aws_instance.web (expand)&#45;&gt;[root] aws_security_group.web&#45;sg (expand)</title>
<path fill="none" stroke="black" d="M778.5,-215.7C778.5,-207.98 778.5,-198.71 778.5,-190.11"/>
<polygon fill="black" stroke="black" points="782,-190.1 778.5,-180.1 775,-190.1 782,-190.1"/>
</g>
<!-- [root] provider[&quot;registry.terraform.io/hashicorp/aws&quot;] -->
<g id="node3" class="node">
<title>[root] provider[&quot;registry.terraform.io/hashicorp/aws&quot;]</title>
<polygon fill="none" stroke="black" points="777.5,-108 524.96,-90 777.5,-72 1030.04,-90 777.5,-108"/>
<text text-anchor="middle" x="777.5" y="-86.3" font-family="Times,serif" font-size="14.00">provider[&quot;registry.terraform.io/hashicorp/aws&quot;]</text>
</g>
<!-- [root] aws_security_group.web&#45;sg (expand)&#45;&gt;[root] provider[&quot;registry.terraform.io/hashicorp/aws&quot;] -->
<g id="edge2" class="edge">
<title>[root] aws_security_group.web&#45;sg (expand)&#45;&gt;[root] provider[&quot;registry.terraform.io/hashicorp/aws&quot;]</title>
<path fill="none" stroke="black" d="M778.25,-143.7C778.14,-135.98 778.01,-126.71 777.89,-118.11"/>
<polygon fill="black" stroke="black" points="781.39,-118.05 777.74,-108.1 774.39,-118.15 781.39,-118.05"/>
</g>
<!-- [root] random_pet.sg (expand) -->
<g id="node5" class="node">
<title>[root] random_pet.sg (expand)</title>
<polygon fill="none" stroke="black" points="1146.5,-108 1048.5,-108 1048.5,-72 1146.5,-72 1146.5,-108"/>
<text text-anchor="middle" x="1097.5" y="-86.3" font-family="Times,serif" font-size="14.00">random_pet.sg</text>
</g>
<!-- [root] aws_security_group.web&#45;sg (expand)&#45;&gt;[root] random_pet.sg (expand) -->
<g id="edge3" class="edge">
<title>[root] aws_security_group.web&#45;sg (expand)&#45;&gt;[root] random_pet.sg (expand)</title>
<path fill="none" stroke="black" d="M862.65,-145.79C911.49,-136.52 974.33,-123.84 1038.35,-108.19"/>
<polygon fill="black" stroke="black" points="1039.35,-111.55 1048.22,-105.75 1037.67,-104.75 1039.35,-111.55"/>
</g>
<!-- [root] provider[&quot;registry.terraform.io/hashicorp/random&quot;] -->
<g id="node4" class="node">
<title>[root] provider[&quot;registry.terraform.io/hashicorp/random&quot;]</title>
<polygon fill="none" stroke="black" points="1097.5,-36 825.36,-18 1097.5,0 1369.64,-18 1097.5,-36"/>
<text text-anchor="middle" x="1097.5" y="-14.3" font-family="Times,serif" font-size="14.00">provider[&quot;registry.terraform.io/hashicorp/random&quot;]</text>
</g>
<!-- [root] random_pet.sg (expand)&#45;&gt;[root] provider[&quot;registry.terraform.io/hashicorp/random&quot;] -->
<g id="edge7" class="edge">
<title>[root] random_pet.sg (expand)&#45;&gt;[root] provider[&quot;registry.terraform.io/hashicorp/random&quot;]</title>
<path fill="none" stroke="black" d="M1097.5,-71.7C1097.5,-63.98 1097.5,-54.71 1097.5,-46.11"/>
<polygon fill="black" stroke="black" points="1101,-46.1 1097.5,-36.1 1094,-46.1 1101,-46.1"/>
</g>
<!-- [root] var.aws_access_key -->
<g id="node6" class="node">
<title>[root] var.aws_access_key</title>
<polygon fill="none" stroke="black" points="119,-324 0,-324 0,-288 125,-288 125,-318 119,-324"/>
<polyline fill="none" stroke="black" points="119,-324 119,-318 "/>
<polyline fill="none" stroke="black" points="125,-318 119,-318 "/>
<text text-anchor="middle" x="62.5" y="-302.3" font-family="Times,serif" font-size="14.00">var.aws_access_key</text>
</g>
<!-- [root] var.aws_secret_access_key -->
<g id="node7" class="node">
<title>[root] var.aws_secret_access_key</title>
<polygon fill="none" stroke="black" points="301.5,-324 143.5,-324 143.5,-288 307.5,-288 307.5,-318 301.5,-324"/>
<polyline fill="none" stroke="black" points="301.5,-324 301.5,-318 "/>
<polyline fill="none" stroke="black" points="307.5,-318 301.5,-318 "/>
<text text-anchor="middle" x="225.5" y="-302.3" font-family="Times,serif" font-size="14.00">var.aws_secret_access_key</text>
</g>
<!-- [root] output.web&#45;address (expand) -->
<g id="node8" class="node">
<title>[root] output.web&#45;address (expand)</title>
<ellipse fill="none" stroke="black" cx="461.5" cy="-306" rx="135.68" ry="18"/>
<text text-anchor="middle" x="461.5" y="-302.3" font-family="Times,serif" font-size="14.00">[root] output.web&#45;address (expand)</text>
</g>
<!-- [root] output.web&#45;address (expand)&#45;&gt;[root] aws_instance.web (expand) -->
<g id="edge4" class="edge">
<title>[root] output.web&#45;address (expand)&#45;&gt;[root] aws_instance.web (expand)</title>
<path fill="none" stroke="black" d="M528.34,-290.24C582.04,-278.38 657.12,-261.8 710.99,-249.91"/>
<polygon fill="black" stroke="black" points="711.78,-253.32 720.79,-247.74 710.27,-246.48 711.78,-253.32"/>
</g>
<!-- [root] provider[&quot;registry.terraform.io/hashicorp/aws&quot;] (close) -->
<g id="node9" class="node">
<title>[root] provider[&quot;registry.terraform.io/hashicorp/aws&quot;] (close)</title>
<ellipse fill="none" stroke="black" cx="842.5" cy="-306" rx="227.46" ry="18"/>
<text text-anchor="middle" x="842.5" y="-302.3" font-family="Times,serif" font-size="14.00">[root] provider[&quot;registry.terraform.io/hashicorp/aws&quot;] (close)</text>
</g>
<!-- [root] provider[&quot;registry.terraform.io/hashicorp/aws&quot;] (close)&#45;&gt;[root] aws_instance.web (expand) -->
<g id="edge5" class="edge">
<title>[root] provider[&quot;registry.terraform.io/hashicorp/aws&quot;] (close)&#45;&gt;[root] aws_instance.web (expand)</title>
<path fill="none" stroke="black" d="M826.68,-287.7C818.93,-279.22 809.46,-268.86 800.98,-259.58"/>
<polygon fill="black" stroke="black" points="803.47,-257.12 794.14,-252.1 798.3,-261.85 803.47,-257.12"/>
</g>
<!-- [root] provider[&quot;registry.terraform.io/hashicorp/random&quot;] (close) -->
<g id="node10" class="node">
<title>[root] provider[&quot;registry.terraform.io/hashicorp/random&quot;] (close)</title>
<ellipse fill="none" stroke="black" cx="1097.5" cy="-234" rx="241.26" ry="18"/>
<text text-anchor="middle" x="1097.5" y="-230.3" font-family="Times,serif" font-size="14.00">[root] provider[&quot;registry.terraform.io/hashicorp/random&quot;] (close)</text>
</g>
<!-- [root] provider[&quot;registry.terraform.io/hashicorp/random&quot;] (close)&#45;&gt;[root] random_pet.sg (expand) -->
<g id="edge6" class="edge">
<title>[root] provider[&quot;registry.terraform.io/hashicorp/random&quot;] (close)&#45;&gt;[root] random_pet.sg (expand)</title>
<path fill="none" stroke="black" d="M1097.5,-215.87C1097.5,-191.67 1097.5,-147.21 1097.5,-118.39"/>
<polygon fill="black" stroke="black" points="1101,-118.19 1097.5,-108.19 1094,-118.19 1101,-118.19"/>
</g>
<!-- [root] root -->
<g id="node11" class="node">
<title>[root] root</title>
<ellipse fill="none" stroke="black" cx="461.5" cy="-378" rx="47.39" ry="18"/>
<text text-anchor="middle" x="461.5" y="-374.3" font-family="Times,serif" font-size="14.00">[root] root</text>
</g>
<!-- [root] root&#45;&gt;[root] var.aws_access_key -->
<g id="edge11" class="edge">
<title>[root] root&#45;&gt;[root] var.aws_access_key</title>
<path fill="none" stroke="black" d="M417.69,-370.91C356.68,-362.21 242.51,-345.12 135.29,-324.08"/>
<polygon fill="black" stroke="black" points="135.76,-320.61 125.27,-322.1 134.4,-327.47 135.76,-320.61"/>
</g>
<!-- [root] root&#45;&gt;[root] var.aws_secret_access_key -->
<g id="edge12" class="edge">
<title>[root] root&#45;&gt;[root] var.aws_secret_access_key</title>
<path fill="none" stroke="black" d="M425.4,-366.29C390.3,-355.88 336.13,-339.81 293.02,-327.03"/>
<polygon fill="black" stroke="black" points="293.75,-323.59 283.17,-324.1 291.76,-330.3 293.75,-323.59"/>
</g>
<!-- [root] root&#45;&gt;[root] output.web&#45;address (expand) -->
<g id="edge8" class="edge">
<title>[root] root&#45;&gt;[root] output.web&#45;address (expand)</title>
<path fill="none" stroke="black" d="M461.5,-359.7C461.5,-351.98 461.5,-342.71 461.5,-334.11"/>
<polygon fill="black" stroke="black" points="465,-334.1 461.5,-324.1 458,-334.1 465,-334.1"/>
</g>
<!-- [root] root&#45;&gt;[root] provider[&quot;registry.terraform.io/hashicorp/aws&quot;] (close) -->
<g id="edge9" class="edge">
<title>[root] root&#45;&gt;[root] provider[&quot;registry.terraform.io/hashicorp/aws&quot;] (close)</title>
<path fill="none" stroke="black" d="M503.36,-369.31C561.57,-358.61 668.62,-338.95 746.92,-324.56"/>
<polygon fill="black" stroke="black" points="747.6,-327.99 756.81,-322.74 746.34,-321.11 747.6,-327.99"/>
</g>
<!-- [root] root&#45;&gt;[root] provider[&quot;registry.terraform.io/hashicorp/random&quot;] (close) -->
<g id="edge10" class="edge">
<title>[root] root&#45;&gt;[root] provider[&quot;registry.terraform.io/hashicorp/random&quot;] (close)</title>
<path fill="none" stroke="black" d="M509.02,-376.12C646.25,-373.14 1036.08,-361.44 1078.5,-324 1095.67,-308.85 1099.49,-282.32 1099.57,-262.16"/>
<polygon fill="black" stroke="black" points="1103.06,-261.91 1099.31,-252.01 1096.07,-262.09 1103.06,-261.91"/>
</g>
</g>
</svg>
